<svg preserveAspectRatio="none" width="100%" height="100%" overflow="visible" style="display: block;" viewBox="0 0 109 3.15755" fill="none" xmlns="http://www.w3.org/2000/svg">
<path id="Line 3" d="M0.1 1.59047V2.59047H0.136917L0.173734 2.58775L0.1 1.59047ZM4.125 1.7473L4.03553 2.74329L4.125 1.7473ZM4.875 1.70095L4.66626 0.722981L4.875 1.70095ZM5.625 1.54087L5.41626 0.562901L5.625 1.54087ZM6.375 1.35119L6.09437 0.391376L6.375 1.35119ZM8.625 1.10539L8.55131 2.10268L8.625 1.10539ZM10.875 1.9863L10.8371 2.98558L10.875 1.9863ZM13.125 1.81393L12.9372 0.831719L13.125 1.81393ZM15.375 1.9338L15.3157 2.93204L15.375 1.9338ZM17.625 1.32778L17.1117 0.469555L17.625 1.32778ZM19.125 1.49966L18.7929 2.44289L19.125 1.49966ZM22.125 1.29097L21.6351 0.419183V0.419183L22.125 1.29097ZM22.875 1.06271L22.8283 0.0637965L22.875 1.06271ZM23.625 1.02763L23.6717 2.02654L23.625 1.02763ZM24.375 1.09267L24.16 2.06927L24.375 1.09267ZM25.875 1.50433L25.4744 2.42058L25.875 1.50433ZM28.875 1.7875L28.7018 2.7724L28.875 1.7875ZM32.625 1.20788L32.3158 0.256885L32.625 1.20788ZM33.75 1.34046L33.4287 2.28742L33.75 1.34046ZM35.625 1.25131L35.3329 0.294934L35.625 1.25131ZM36.375 1.16315L36.3048 2.16069L36.375 1.16315ZM37.875 1.23732L37.8616 0.237413L37.875 1.23732ZM40.125 1.5425L39.8512 2.5043L40.125 1.5425ZM41.625 1.50651L41.4991 0.514465L41.625 1.50651ZM42.375 1.42345L42.2808 0.427896L42.375 1.42345ZM46.875 1.29979L46.9368 0.301706L46.875 1.29979ZM47.625 1.34626L47.6868 0.348173L47.625 1.34626ZM49.125 1.82635L48.7487 2.75287L49.125 1.82635ZM50.625 1.47922L50.2193 0.565236L50.625 1.47922ZM51.375 1.32371L51.3458 2.32328L51.375 1.32371ZM53.625 1.15881L53.4519 0.173917L53.625 1.15881ZM55.875 1.23468L55.4374 2.13385L55.875 1.23468ZM58.125 1.19075L57.6597 0.305614L58.125 1.19075ZM60.375 1.19875L59.9449 2.10151L60.375 1.19875ZM61.125 1.55611L60.6949 2.45887L61.125 1.55611ZM64.125 1.36547L63.6386 0.491752L64.125 1.36547ZM67.875 1.98264L67.7476 0.990795L67.875 1.98264ZM68.625 1.8863L68.4976 0.894446L68.625 1.8863ZM69.75 1.76786L69.6567 0.772218L69.75 1.76786ZM71.625 1.54107L71.7628 2.53153L71.625 1.54107ZM74.25 1.59299L74.0096 2.56367L74.25 1.59299ZM76.875 1.29341L76.6466 0.319843L76.875 1.29341ZM77.625 1.11745L77.8534 2.09101L77.625 1.11745ZM79.125 1.24924L78.9333 2.23069L79.125 1.24924ZM79.875 1.49882L79.4495 2.40378L79.875 1.49882ZM81.375 1.9824L81.2549 0.989641L81.375 1.9824ZM82.875 1.86615L82.822 2.86475L82.875 1.86615ZM84.375 1.88236L84.2597 0.889024L84.375 1.88236ZM88.875 1.30483L88.3374 2.14804L88.875 1.30483ZM91.125 1.29932L90.5845 0.457987L91.125 1.29932ZM92.625 1.44329L92.3013 2.38945L92.625 1.44329ZM95.25 2.11444L95.1606 3.11044L95.25 2.11444ZM95.625 2.14809L95.7144 1.15209L95.625 2.14809ZM97.125 1.92375L96.9015 0.949047L97.125 1.92375ZM98.625 1.90745L98.5632 2.90554L98.625 1.90745ZM100.875 1.36959L100.345 2.21745L100.875 1.36959ZM103.875 1.97007L103.526 1.0329L103.875 1.97007ZM104.625 1.69086L104.974 2.62803L104.625 1.69086ZM105.75 1.47483L105.649 0.479986L105.75 1.47483ZM108 1.82368H109V1.61833L108.919 1.42959L108 1.82368ZM107.9 1.59047V0.590472H106.383L106.981 1.98456L107.9 1.59047ZM0 1.59047V2.59047H0.1V1.59047V0.590472H0V1.59047ZM0.1 1.59047L0.173734 2.58775L0.873734 2.536L0.8 1.53872L0.726266 0.541439L0.0262663 0.593194L0.1 1.59047ZM0.8 1.53872L0.873734 2.536C1.32227 2.50283 1.60962 2.50422 1.76941 2.52119L1.875 1.52678L1.98059 0.532373C1.64038 0.496248 1.21106 0.505596 0.726266 0.541439L0.8 1.53872ZM1.875 1.52678L1.76941 2.52119L2.14441 2.56101L2.25 1.5666L2.35559 0.572193L1.98059 0.532373L1.875 1.52678ZM2.25 1.5666L2.14441 2.56101L2.51941 2.60083L2.625 1.60642L2.73059 0.612012L2.35559 0.572193L2.25 1.5666ZM2.625 1.60642L2.51941 2.60083C2.77477 2.62795 3.03014 2.65298 3.28553 2.67592L3.375 1.67993L3.46447 0.68394C3.21986 0.661965 2.97523 0.63799 2.73059 0.612012L2.625 1.60642ZM3.375 1.67993L3.28553 2.67592L3.66053 2.70961L3.75 1.71362L3.83947 0.717628L3.46447 0.68394L3.375 1.67993ZM3.75 1.71362L3.66053 2.70961L4.03553 2.74329L4.125 1.7473L4.21447 0.751315L3.83947 0.717628L3.75 1.71362ZM4.125 1.7473L4.03553 2.74329C4.38712 2.77488 4.73762 2.7528 5.08374 2.67892L4.875 1.70095L4.66626 0.722981C4.51238 0.755826 4.36288 0.764647 4.21447 0.751315L4.125 1.7473ZM4.875 1.70095L5.08374 2.67892L5.45874 2.59888L5.25 1.62091L5.04126 0.642941L4.66626 0.722981L4.875 1.70095ZM5.25 1.62091L5.45874 2.59888L5.83374 2.51884L5.625 1.54087L5.41626 0.562901L5.04126 0.642941L5.25 1.62091ZM5.625 1.54087L5.83374 2.51884C6.10837 2.46023 6.38234 2.39091 6.65563 2.31101L6.375 1.35119L6.09437 0.391376C5.86766 0.457662 5.64163 0.514799 5.41626 0.562901L5.625 1.54087ZM6.375 1.35119L6.65563 2.31101L7.03063 2.20137L6.75 1.24155L6.46937 0.281734L6.09437 0.391376L6.375 1.35119ZM6.75 1.24155L7.03063 2.20137L7.40563 2.09173L7.125 1.13191L6.84437 0.172093L6.46937 0.281734L6.75 1.24155ZM7.125 1.13191L7.40563 2.09173C7.54527 2.0509 7.67535 2.03795 7.80131 2.04726L7.875 1.04998L7.94869 0.0526958C7.57465 0.0250587 7.20473 0.0667324 6.84437 0.172093L7.125 1.13191ZM7.875 1.04998L7.80131 2.04726L8.17631 2.07497L8.25 1.07769L8.32369 0.080404L7.94869 0.0526958L7.875 1.04998ZM8.25 1.07769L8.17631 2.07497L8.55131 2.10268L8.625 1.10539L8.69869 0.108113L8.32369 0.080404L8.25 1.07769ZM8.625 1.10539L8.55131 2.10268C8.6363 2.10895 8.74609 2.13687 8.88686 2.21561L9.375 1.34284L9.86314 0.470081C9.50391 0.269157 9.1137 0.138777 8.69869 0.108113L8.625 1.10539ZM9.375 1.34284L8.88686 2.21561L9.26186 2.42535L9.75 1.55258L10.2381 0.679822L9.86314 0.470081L9.375 1.34284ZM9.75 1.55258L9.26186 2.42535L9.63686 2.63509L10.125 1.76233L10.6131 0.889563L10.2381 0.679822L9.75 1.55258ZM10.125 1.76233L9.63686 2.63509C10.0047 2.84083 10.4076 2.96928 10.8371 2.98558L10.875 1.9863L10.9129 0.98702C10.8424 0.984343 10.7453 0.963473 10.6131 0.889563L10.125 1.76233ZM10.875 1.9863L10.8371 2.98558L11.2121 2.99981L11.25 2.00053L11.2879 1.00125L10.9129 0.98702L10.875 1.9863ZM11.25 2.00053L11.2121 2.99981L11.5871 3.01405L11.625 2.01477L11.6629 1.01549L11.2879 1.00125L11.25 2.00053ZM11.625 2.01477L11.5871 3.01405C11.914 3.02646 12.2397 3.00128 12.5628 2.93952L12.375 1.95731L12.1872 0.975099C12.0103 1.00893 11.836 1.02206 11.6629 1.01549L11.625 2.01477ZM12.375 1.95731L12.5628 2.93952L12.9378 2.86783L12.75 1.88562L12.5622 0.903409L12.1872 0.975099L12.375 1.95731ZM12.75 1.88562L12.9378 2.86783L13.3128 2.79614L13.125 1.81393L12.9372 0.831719L12.5622 0.903409L12.75 1.88562ZM13.125 1.81393L13.3128 2.79614C13.4651 2.76702 13.614 2.76146 13.7629 2.77826L13.875 1.78456L13.9871 0.790873C13.636 0.751241 13.2849 0.765257 12.9372 0.831719L13.125 1.81393ZM13.875 1.78456L13.7629 2.77826L14.1379 2.82058L14.25 1.82689L14.3621 0.833196L13.9871 0.790873L13.875 1.78456ZM14.25 1.82689L14.1379 2.82058L14.5129 2.8629L14.625 1.86921L14.7371 0.875518L14.3621 0.833196L14.25 1.82689ZM14.625 1.86921L14.5129 2.8629C14.7804 2.89309 15.048 2.91614 15.3157 2.93204L15.375 1.9338L15.4343 0.935558C15.202 0.921767 14.9696 0.901759 14.7371 0.875518L14.625 1.86921ZM15.375 1.9338L15.3157 2.93204L15.6907 2.95431L15.75 1.95607L15.8093 0.957826L15.4343 0.935558L15.375 1.9338ZM15.75 1.95607L15.6907 2.95431L16.0657 2.97658L16.125 1.97833L16.1843 0.980093L15.8093 0.957826L15.75 1.95607ZM16.125 1.97833L16.0657 2.97658C16.5475 3.00518 16.9947 2.86992 17.3883 2.63455L16.875 1.77633L16.3617 0.918103C16.2553 0.981766 16.2025 0.981177 16.1843 0.980093L16.125 1.97833ZM16.875 1.77633L17.3883 2.63455L17.7633 2.41028L17.25 1.55205L16.7367 0.693829L16.3617 0.918103L16.875 1.77633ZM17.25 1.55205L17.7633 2.41028L18.1383 2.18601L17.625 1.32778L17.1117 0.469555L16.7367 0.693829L17.25 1.55205ZM17.625 1.32778L18.1383 2.18601C18.1622 2.17167 18.1554 2.18101 18.122 2.18511C18.1063 2.18705 18.0896 2.18713 18.0737 2.1853C18.0579 2.18349 18.0473 2.18034 18.0429 2.17879L18.375 1.23556L18.7071 0.292328C18.1467 0.09497 17.5882 0.18457 17.1117 0.469555L17.625 1.32778ZM18.375 1.23556L18.0429 2.17879L18.4179 2.31084L18.75 1.36761L19.0821 0.424379L18.7071 0.292328L18.375 1.23556ZM18.75 1.36761L18.4179 2.31084L18.7929 2.44289L19.125 1.49966L19.4571 0.556429L19.0821 0.424379L18.75 1.36761ZM19.125 1.49966L18.7929 2.44289C19.0871 2.54651 19.3844 2.62794 19.6843 2.68621L19.875 1.70457L20.0657 0.722926C19.8656 0.684051 19.6629 0.628874 19.4571 0.556429L19.125 1.49966ZM19.875 1.70457L19.6843 2.68621L20.0593 2.75907L20.25 1.77743L20.4407 0.795786L20.0657 0.722926L19.875 1.70457ZM20.25 1.77743L20.0593 2.75907L20.4343 2.83193L20.625 1.85029L20.8157 0.868646L20.4407 0.795786L20.25 1.77743ZM20.625 1.85029L20.4343 2.83193C20.9464 2.93144 21.436 2.82524 21.8649 2.58421L21.375 1.71242L20.8851 0.840637C20.8441 0.863685 20.8228 0.868074 20.8192 0.868731C20.817 0.86913 20.8168 0.869003 20.8177 0.869008C20.8187 0.869013 20.8182 0.869135 20.8157 0.868646L20.625 1.85029ZM21.375 1.71242L21.8649 2.58421L22.2399 2.37348L21.75 1.50169L21.2601 0.62991L20.8851 0.840637L21.375 1.71242ZM21.75 1.50169L22.2399 2.37348L22.6149 2.16275L22.125 1.29097L21.6351 0.419183L21.2601 0.62991L21.75 1.50169ZM22.125 1.29097L22.6149 2.16275C22.749 2.08741 22.8486 2.06503 22.9217 2.06161L22.875 1.06271L22.8283 0.0637965C22.4014 0.0837591 22.001 0.213555 21.6351 0.419183L22.125 1.29097ZM22.875 1.06271L22.9217 2.06161L23.2967 2.04408L23.25 1.04517L23.2033 0.0462608L22.8283 0.0637965L22.875 1.06271ZM23.25 1.04517L23.2967 2.04408L23.6717 2.02654L23.625 1.02763L23.5783 0.0287251L23.2033 0.0462608L23.25 1.04517ZM23.625 1.02763L23.6717 2.02654C23.8319 2.01905 23.9939 2.0327 24.16 2.06927L24.375 1.09267L24.59 0.11606C24.2561 0.0425377 23.9181 0.0128331 23.5783 0.0287251L23.625 1.02763ZM24.375 1.09267L24.16 2.06927L24.535 2.15184L24.75 1.17524L24.965 0.198628L24.59 0.11606L24.375 1.09267ZM24.75 1.17524L24.535 2.15184L24.91 2.23441L25.125 1.2578L25.34 0.281197L24.965 0.198628L24.75 1.17524ZM25.125 1.2578L24.91 2.23441C25.0923 2.27455 25.2802 2.33569 25.4744 2.42058L25.875 1.50433L26.2756 0.588071C25.9698 0.454355 25.6577 0.351149 25.34 0.281197L25.125 1.2578ZM25.875 1.50433L25.4744 2.42058L25.8494 2.58454L26.25 1.66828L26.6506 0.752025L26.2756 0.588071L25.875 1.50433ZM26.25 1.66828L25.8494 2.58454L26.2244 2.74849L26.625 1.83223L27.0256 0.915978L26.6506 0.752025L26.25 1.66828ZM26.625 1.83223L26.2244 2.74849C26.6428 2.93143 27.0945 2.9955 27.5551 2.91118L27.375 1.92753L27.1949 0.943882C27.1555 0.951103 27.1072 0.951641 27.0256 0.915978L26.625 1.83223ZM27.375 1.92753L27.5551 2.91118L27.9301 2.84253L27.75 1.85888L27.5699 0.875228L27.1949 0.943882L27.375 1.92753ZM27.75 1.85888L27.9301 2.84253L28.3051 2.77388L28.125 1.79023L27.9449 0.806574L27.5699 0.875228L27.75 1.85888ZM28.125 1.79023L28.3051 2.77388C28.4385 2.74945 28.5689 2.74902 28.7018 2.7724L28.875 1.7875L29.0482 0.802608C28.6811 0.738077 28.3115 0.73946 27.9449 0.806574L28.125 1.79023ZM28.875 1.7875L28.7018 2.7724L29.0768 2.83833L29.25 1.85343L29.4232 0.868539L29.0482 0.802608L28.875 1.7875ZM29.25 1.85343L29.0768 2.83833L29.4518 2.90426L29.625 1.91936L29.7982 0.93447L29.4232 0.868539L29.25 1.85343ZM29.625 1.91936L29.4518 2.90426C29.8507 2.97438 30.2502 2.95362 30.6396 2.84673L30.375 1.88239L30.1104 0.918038C29.9998 0.948367 29.8993 0.952258 29.7982 0.93447L29.625 1.91936ZM30.375 1.88239L30.6396 2.84673L31.0146 2.74382L30.75 1.77948L30.4854 0.81513L30.1104 0.918038L30.375 1.88239ZM30.75 1.77948L31.0146 2.74382L31.3896 2.64092L31.125 1.67657L30.8604 0.712221L30.4854 0.81513L30.75 1.77948ZM31.125 1.67657L31.3896 2.64092C31.6548 2.56815 31.9197 2.48874 32.1842 2.40273L31.875 1.45173L31.5658 0.500737C31.3303 0.577293 31.0952 0.647776 30.8604 0.712221L31.125 1.67657ZM31.875 1.45173L32.1842 2.40273L32.5592 2.2808L32.25 1.32981L31.9408 0.378811L31.5658 0.500737L31.875 1.45173ZM32.25 1.32981L32.5592 2.2808L32.9342 2.15888L32.625 1.20788L32.3158 0.256885L31.9408 0.378811L32.25 1.32981ZM32.625 1.20788L32.9342 2.15888C32.9781 2.14459 33.007 2.14433 33.0537 2.16017L33.375 1.21321L33.6963 0.266242C33.243 0.112419 32.7719 0.108605 32.3158 0.256885L32.625 1.20788ZM33.375 1.21321L33.0537 2.16017L33.4287 2.28742L33.75 1.34046L34.0713 0.393493L33.6963 0.266242L33.375 1.21321ZM33.75 1.34046L33.4287 2.28742L33.8037 2.41467L34.125 1.46771L34.4463 0.520744L34.0713 0.393493L33.75 1.34046ZM34.125 1.46771L33.8037 2.41467C34.25 2.56613 34.7146 2.57503 35.1671 2.43678L34.875 1.48041L34.5829 0.524034C34.5354 0.538526 34.5 0.538954 34.4463 0.520744L34.125 1.46771ZM34.875 1.48041L35.1671 2.43678L35.5421 2.32224L35.25 1.36586L34.9579 0.409484L34.5829 0.524034L34.875 1.48041ZM35.25 1.36586L35.5421 2.32224L35.9171 2.20769L35.625 1.25131L35.3329 0.294934L34.9579 0.409484L35.25 1.36586ZM35.625 1.25131L35.9171 2.20769C36.055 2.16557 36.1823 2.15207 36.3048 2.16069L36.375 1.16315L36.4452 0.165621C36.0677 0.139051 35.695 0.184319 35.3329 0.294934L35.625 1.25131ZM36.375 1.16315L36.3048 2.16069L36.6798 2.18708L36.75 1.18955L36.8202 0.192015L36.4452 0.165621L36.375 1.16315ZM36.75 1.18955L36.6798 2.18708L37.0548 2.21347L37.125 1.21594L37.1952 0.218408L36.8202 0.192015L36.75 1.18955ZM37.125 1.21594L37.0548 2.21347C37.3325 2.23302 37.6104 2.24095 37.8884 2.23723L37.875 1.23732L37.8616 0.237413C37.6396 0.24038 37.4175 0.234051 37.1952 0.218408L37.125 1.21594ZM37.875 1.23732L37.8884 2.23723L38.2634 2.23222L38.25 1.23231L38.2366 0.232402L37.8616 0.237413L37.875 1.23732ZM38.25 1.23231L38.2634 2.23222L38.6384 2.22721L38.625 1.2273L38.6116 0.227391L38.2366 0.232402L38.25 1.23231ZM38.625 1.2273L38.6384 2.22721C38.7875 2.22522 38.9409 2.24518 39.1012 2.29083L39.375 1.32903L39.6488 0.367231C39.3091 0.270561 38.9625 0.222703 38.6116 0.227391L38.625 1.2273ZM39.375 1.32903L39.1012 2.29083L39.4762 2.39756L39.75 1.43577L40.0238 0.473969L39.6488 0.367231L39.375 1.32903ZM39.75 1.43577L39.4762 2.39756L39.8512 2.5043L40.125 1.5425L40.3988 0.580706L40.0238 0.473969L39.75 1.43577ZM40.125 1.5425L39.8512 2.5043C40.2269 2.61122 40.6127 2.64296 41.0009 2.59371L40.875 1.60167L40.7491 0.609618C40.6373 0.623811 40.5231 0.616108 40.3988 0.580706L40.125 1.5425ZM40.875 1.60167L41.0009 2.59371L41.3759 2.54614L41.25 1.55409L41.1241 0.562041L40.7491 0.609618L40.875 1.60167ZM41.25 1.55409L41.3759 2.54614L41.7509 2.49856L41.625 1.50651L41.4991 0.514465L41.1241 0.562041L41.25 1.55409ZM41.625 1.50651L41.7509 2.49856C41.9904 2.46817 42.2298 2.44166 42.4692 2.419L42.375 1.42345L42.2808 0.427896C42.0202 0.452559 41.7596 0.481416 41.4991 0.514465L41.625 1.50651ZM42.375 1.42345L42.4692 2.419L42.8442 2.38351L42.75 1.38796L42.6558 0.392407L42.2808 0.427896L42.375 1.42345ZM42.75 1.38796L42.8442 2.38351L43.2192 2.34802L43.125 1.35247L43.0308 0.356918L42.6558 0.392407L42.75 1.38796ZM43.125 1.35247L43.2192 2.34802C43.2861 2.34169 43.3666 2.34985 43.4749 2.39716L43.875 1.48067L44.2751 0.564177C43.8834 0.393234 43.4639 0.315927 43.0308 0.356918L43.125 1.35247ZM43.875 1.48067L43.4749 2.39716L43.8499 2.56085L44.25 1.64436L44.6501 0.727865L44.2751 0.564177L43.875 1.48067ZM44.25 1.64436L43.8499 2.56085L44.2249 2.72454L44.625 1.80805L45.0251 0.891553L44.6501 0.727865L44.25 1.64436ZM44.625 1.80805L44.2249 2.72454C44.7402 2.94945 45.2889 2.94002 45.7955 2.70524L45.375 1.79794L44.9545 0.890642C44.9482 0.893567 44.9487 0.892649 44.9555 0.891019C44.9626 0.889325 44.9734 0.887631 44.9865 0.887454C44.9997 0.887277 45.0111 0.888678 45.0194 0.890442C45.0275 0.892154 45.0296 0.893536 45.0251 0.891553L44.625 1.80805ZM45.375 1.79794L45.7955 2.70524L46.1705 2.53145L45.75 1.62415L45.3295 0.716848L44.9545 0.890642L45.375 1.79794ZM45.75 1.62415L46.1705 2.53145L46.5455 2.35765L46.125 1.45035L45.7045 0.543054L45.3295 0.716848L45.75 1.62415ZM46.125 1.45035L46.5455 2.35765C46.6602 2.30451 46.7451 2.29366 46.8132 2.29788L46.875 1.29979L46.9368 0.301706C46.5049 0.274943 46.0898 0.364474 45.7045 0.543054L46.125 1.45035ZM46.875 1.29979L46.8132 2.29788L47.1882 2.32111L47.25 1.32303L47.3118 0.32494L46.9368 0.301706L46.875 1.29979ZM47.25 1.32303L47.1882 2.32111L47.5632 2.34435L47.625 1.34626L47.6868 0.348173L47.3118 0.32494L47.25 1.32303ZM47.625 1.34626L47.5632 2.34435C47.6971 2.35265 47.8412 2.38433 47.9987 2.4483L48.375 1.52178L48.7513 0.595265C48.4088 0.456176 48.0529 0.370851 47.6868 0.348173L47.625 1.34626ZM48.375 1.52178L47.9987 2.4483L48.3737 2.60058L48.75 1.67407L49.1263 0.747552L48.7513 0.595265L48.375 1.52178ZM48.75 1.67407L48.3737 2.60058L48.7487 2.75287L49.125 1.82635L49.5013 0.89984L49.1263 0.747552L48.75 1.67407ZM49.125 1.82635L48.7487 2.75287C49.2542 2.95812 49.7864 2.9456 50.2807 2.72615L49.875 1.81217L49.4693 0.898183C49.461 0.901843 49.4588 0.901991 49.462 0.901231C49.4655 0.900423 49.4722 0.899298 49.4811 0.899131C49.49 0.898963 49.4975 0.899824 49.5026 0.900804C49.5074 0.901748 49.5072 0.902249 49.5013 0.89984L49.125 1.82635ZM49.875 1.81217L50.2807 2.72615L50.6557 2.55968L50.25 1.6457L49.8443 0.731709L49.4693 0.898183L49.875 1.81217ZM50.25 1.6457L50.6557 2.55968L51.0307 2.39321L50.625 1.47922L50.2193 0.565236L49.8443 0.731709L50.25 1.6457ZM50.625 1.47922L51.0307 2.39321C51.157 2.33717 51.2589 2.32074 51.3458 2.32328L51.375 1.32371L51.4042 0.324133C50.9911 0.31206 50.593 0.399309 50.2193 0.565236L50.625 1.47922ZM51.375 1.32371L51.3458 2.32328L51.7208 2.33424L51.75 1.33466L51.7792 0.335091L51.4042 0.324133L51.375 1.32371ZM51.75 1.33466L51.7208 2.33424L52.0958 2.3452L52.125 1.34562L52.1542 0.346049L51.7792 0.335091L51.75 1.33466ZM52.125 1.34562L52.0958 2.3452C52.4146 2.35451 52.7324 2.33107 53.0481 2.27556L52.875 1.29066L52.7019 0.305761C52.5176 0.338145 52.3354 0.351344 52.1542 0.346049L52.125 1.34562ZM52.875 1.29066L53.0481 2.27556L53.4231 2.20963L53.25 1.22474L53.0769 0.239839L52.7019 0.305761L52.875 1.29066ZM53.25 1.22474L53.4231 2.20963L53.7981 2.14371L53.625 1.15881L53.4519 0.173917L53.0769 0.239839L53.25 1.22474ZM53.625 1.15881L53.7981 2.14371C54.0006 2.10812 54.2018 2.08778 54.4021 2.08235L54.375 1.08271L54.3479 0.0830827C54.0482 0.091217 53.7494 0.121615 53.4519 0.173917L53.625 1.15881ZM54.375 1.08271L54.4021 2.08235L54.7771 2.07217L54.75 1.07254L54.7229 0.0729043L54.3479 0.0830827L54.375 1.08271ZM54.75 1.07254L54.7771 2.07217L55.1521 2.06199L55.125 1.06236L55.0979 0.062726L54.7229 0.0729043L54.75 1.07254ZM55.125 1.06236L55.1521 2.06199C55.2241 2.06004 55.3156 2.07456 55.4374 2.13385L55.875 1.23468L56.3126 0.335514C55.9344 0.151465 55.5259 0.0511084 55.0979 0.062726L55.125 1.06236ZM55.875 1.23468L55.4374 2.13385L55.8124 2.31635L56.25 1.41719L56.6876 0.518016L56.3126 0.335514L55.875 1.23468ZM56.25 1.41719L55.8124 2.31635L56.1874 2.49886L56.625 1.59969L57.0626 0.700519L56.6876 0.518016L56.25 1.41719ZM56.625 1.59969L56.1874 2.49886C56.7288 2.76234 57.314 2.74688 57.8403 2.47018L57.375 1.58504L56.9097 0.69991C56.9044 0.702704 56.9309 0.688437 56.9805 0.687469C57.0033 0.687024 57.0237 0.689626 57.04 0.693422C57.0558 0.697121 57.0636 0.700982 57.0626 0.700519L56.625 1.59969ZM57.375 1.58504L57.8403 2.47018L58.2153 2.27303L57.75 1.38789L57.2847 0.502762L56.9097 0.69991L57.375 1.58504ZM57.75 1.38789L58.2153 2.27303L58.5903 2.07588L58.125 1.19075L57.6597 0.305614L57.2847 0.502762L57.75 1.38789ZM58.125 1.19075L58.5903 2.07588C58.7111 2.01238 58.7962 1.99898 58.8574 2.00006L58.875 1.00022L58.8926 0.000371933C58.4538 -0.00737309 58.0389 0.106247 57.6597 0.305614L58.125 1.19075ZM58.875 1.00022L58.8574 2.00006L59.2324 2.00668L59.25 1.00683L59.2676 0.00698948L58.8926 0.000371933L58.875 1.00022ZM59.25 1.00683L59.2324 2.00668L59.6074 2.0133L59.625 1.01345L59.6426 0.0136073L59.2676 0.00698948L59.25 1.00683ZM59.625 1.01345L59.6074 2.0133C59.6998 2.01493 59.8099 2.03719 59.9449 2.10151L60.375 1.19875L60.8051 0.29599C60.4401 0.122068 60.0502 0.0207996 59.6426 0.0136073L59.625 1.01345ZM60.375 1.19875L59.9449 2.10151L60.3199 2.28019L60.75 1.37743L61.1801 0.47467L60.8051 0.29599L60.375 1.19875ZM60.75 1.37743L60.3199 2.28019L60.6949 2.45887L61.125 1.55611L61.5551 0.653349L61.1801 0.47467L60.75 1.37743ZM61.125 1.55611L60.6949 2.45887C61.0202 2.61388 61.3578 2.72499 61.7061 2.78468L61.875 1.79904L62.0439 0.813403C61.8922 0.787421 61.7298 0.736574 61.5551 0.653349L61.125 1.55611ZM61.875 1.79904L61.7061 2.78468L62.0811 2.84893L62.25 1.86329L62.4189 0.877655L62.0439 0.813403L61.875 1.79904ZM62.25 1.86329L62.0811 2.84893L62.4561 2.91318L62.625 1.92754L62.7939 0.941908L62.4189 0.877655L62.25 1.86329ZM62.625 1.92754L62.4561 2.91318C62.9596 2.99945 63.4391 2.89185 63.8614 2.65674L63.375 1.78302L62.8886 0.909302C62.8449 0.933596 62.8196 0.93991 62.8108 0.941604C62.8035 0.943009 62.7998 0.942923 62.7939 0.941908L62.625 1.92754ZM63.375 1.78302L63.8614 2.65674L64.2364 2.44797L63.75 1.57425L63.2636 0.700527L62.8886 0.909302L63.375 1.78302ZM63.75 1.57425L64.2364 2.44797L64.6114 2.23919L64.125 1.36547L63.6386 0.491752L63.2636 0.700527L63.75 1.57425ZM64.125 1.36547L64.6114 2.23919C64.7205 2.17847 64.7844 2.17389 64.82 2.17585L64.875 1.17737L64.93 0.178885C64.4656 0.153281 64.0295 0.274106 63.6386 0.491752L64.125 1.36547ZM64.875 1.17737L64.82 2.17585L65.195 2.19653L65.25 1.19804L65.305 0.199558L64.93 0.178885L64.875 1.17737ZM65.25 1.19804L65.195 2.19653L65.57 2.2172L65.625 1.21871L65.68 0.220231L65.305 0.199558L65.25 1.19804ZM65.625 1.21871L65.57 2.2172C65.6586 2.22209 65.7693 2.24831 65.9083 2.32169L66.375 1.43725L66.8417 0.552803C66.4807 0.362372 66.0914 0.242905 65.68 0.220231L65.625 1.21871ZM66.375 1.43725L65.9083 2.32169L66.2833 2.51954L66.75 1.6351L67.2167 0.750661L66.8417 0.552803L66.375 1.43725ZM66.75 1.6351L66.2833 2.51954L66.6583 2.7174L67.125 1.83296L67.5917 0.948519L67.2167 0.750661L66.75 1.6351ZM67.125 1.83296L66.6583 2.7174C67.0675 2.93329 67.5236 3.036 68.0024 2.97449L67.875 1.98264L67.7476 0.990795C67.7264 0.993521 67.6825 0.996441 67.5917 0.948519L67.125 1.83296ZM67.875 1.98264L68.0024 2.97449L68.3774 2.92632L68.25 1.93447L68.1226 0.942621L67.7476 0.990795L67.875 1.98264ZM68.25 1.93447L68.3774 2.92632L68.7524 2.87814L68.625 1.8863L68.4976 0.894446L68.1226 0.942621L68.25 1.93447ZM68.625 1.8863L68.7524 2.87814C68.9911 2.84748 69.2297 2.82098 69.4683 2.79863L69.375 1.80299L69.2817 0.807349C69.0203 0.831842 68.7589 0.860876 68.4976 0.894446L68.625 1.8863ZM69.375 1.80299L69.4683 2.79863L69.8433 2.7635L69.75 1.76786L69.6567 0.772218L69.2817 0.807349L69.375 1.80299ZM69.75 1.76786L69.8433 2.7635L70.2183 2.72837L70.125 1.73273L70.0317 0.737087L69.6567 0.772218L69.75 1.76786ZM70.125 1.73273L70.2183 2.72837C70.4832 2.70355 70.7481 2.67271 71.0128 2.63588L70.875 1.64542L70.7372 0.654962C70.5019 0.687697 70.2668 0.715068 70.0317 0.737087L70.125 1.73273ZM70.875 1.64542L71.0128 2.63588L71.3878 2.5837L71.25 1.59324L71.1122 0.602786L70.7372 0.654962L70.875 1.64542ZM71.25 1.59324L71.3878 2.5837L71.7628 2.53153L71.625 1.54107L71.4872 0.550609L71.1122 0.602786L71.25 1.59324ZM71.625 1.54107L71.7628 2.53153C71.9853 2.50057 72.2075 2.47908 72.4293 2.467L72.375 1.46848L72.3207 0.46996C72.0425 0.485099 71.7647 0.512003 71.4872 0.550609L71.625 1.54107ZM72.375 1.46848L72.4293 2.467L72.8043 2.4466L72.75 1.44807L72.6957 0.449551L72.3207 0.46996L72.375 1.46848ZM72.75 1.44807L72.8043 2.4466L73.1793 2.42619L73.125 1.42766L73.0707 0.429142L72.6957 0.449551L72.75 1.44807ZM73.125 1.42766L73.1793 2.42619C73.3274 2.41813 73.4781 2.43205 73.6346 2.4708L73.875 1.50012L74.1154 0.529443C73.7719 0.44437 73.4226 0.409989 73.0707 0.429142L73.125 1.42766ZM73.875 1.50012L73.6346 2.4708L74.0096 2.56367L74.25 1.59299L74.4904 0.622309L74.1154 0.529443L73.875 1.50012ZM74.25 1.59299L74.0096 2.56367L74.3846 2.65653L74.625 1.68585L74.8654 0.715175L74.4904 0.622309L74.25 1.59299ZM74.625 1.68585L74.3846 2.65653C74.7985 2.75903 75.2193 2.75513 75.6311 2.64605L75.375 1.67939L75.1189 0.712724C75.0307 0.736087 74.9515 0.736498 74.8654 0.715175L74.625 1.68585ZM75.375 1.67939L75.6311 2.64605L76.0061 2.54672L75.75 1.58005L75.4939 0.613392L75.1189 0.712724L75.375 1.67939ZM75.75 1.58005L76.0061 2.54672L76.3811 2.44738L76.125 1.48072L75.8689 0.514059L75.4939 0.613392L75.75 1.58005ZM76.125 1.48072L76.3811 2.44738C76.6219 2.38358 76.8627 2.32344 77.1034 2.26697L76.875 1.29341L76.6466 0.319843C76.3873 0.380681 76.1281 0.445422 75.8689 0.514059L76.125 1.48072ZM76.875 1.29341L77.1034 2.26697L77.4784 2.17899L77.25 1.20543L77.0216 0.231862L76.6466 0.319843L76.875 1.29341ZM77.25 1.20543L77.4784 2.17899L77.8534 2.09101L77.625 1.11745L77.3966 0.143881L77.0216 0.231862L77.25 1.20543ZM77.625 1.11745L77.8534 2.09101C77.9667 2.06444 78.0734 2.06272 78.1833 2.08417L78.375 1.10272L78.5667 0.121276C78.1765 0.0450511 77.7833 0.0531423 77.3966 0.143881L77.625 1.11745ZM78.375 1.10272L78.1833 2.08417L78.5583 2.15743L78.75 1.17598L78.9417 0.194534L78.5667 0.121276L78.375 1.10272ZM78.75 1.17598L78.5583 2.15743L78.9333 2.23069L79.125 1.24924L79.3167 0.267792L78.9417 0.194534L78.75 1.17598ZM79.125 1.24924L78.9333 2.23069C79.096 2.26248 79.2677 2.31832 79.4495 2.40378L79.875 1.49882L80.3005 0.593861C79.9823 0.444225 79.654 0.333679 79.3167 0.267792L79.125 1.24924ZM79.875 1.49882L79.4495 2.40378L79.8245 2.5801L80.25 1.67514L80.6755 0.770181L80.3005 0.593861L79.875 1.49882ZM80.25 1.67514L79.8245 2.5801L80.1995 2.75642L80.625 1.85146L81.0505 0.946502L80.6755 0.770181L80.25 1.67514ZM80.625 1.85146L80.1995 2.75642C80.6024 2.94587 81.0407 3.03015 81.4951 2.97515L81.375 1.9824L81.2549 0.989641C81.2093 0.995158 81.1476 0.99214 81.0505 0.946502L80.625 1.85146ZM81.375 1.9824L81.4951 2.97515L81.8701 2.92977L81.75 1.93701L81.6299 0.944258L81.2549 0.989641L81.375 1.9824ZM81.75 1.93701L81.8701 2.92977L82.2451 2.88439L82.125 1.89163L82.0049 0.898875L81.6299 0.944258L81.75 1.93701ZM82.125 1.89163L82.2451 2.88439C82.438 2.86104 82.6301 2.85456 82.822 2.86475L82.875 1.86615L82.928 0.867561C82.6199 0.851205 82.312 0.861709 82.0049 0.898875L82.125 1.89163ZM82.875 1.86615L82.822 2.86475L83.197 2.88466L83.25 1.88606L83.303 0.887467L82.928 0.867561L82.875 1.86615ZM83.25 1.88606L83.197 2.88466L83.572 2.90456L83.625 1.90597L83.678 0.907374L83.303 0.887467L83.25 1.88606ZM83.625 1.90597L83.572 2.90456C83.8784 2.92083 84.1847 2.91115 84.4903 2.87569L84.375 1.88236L84.2597 0.889024C84.0653 0.911589 83.8716 0.917649 83.678 0.907374L83.625 1.90597ZM84.375 1.88236L84.4903 2.87569L84.8653 2.83218L84.75 1.83884L84.6347 0.845508L84.2597 0.889024L84.375 1.88236ZM84.75 1.83884L84.8653 2.83218L85.2403 2.78866L85.125 1.79533L85.0097 0.801992L84.6347 0.845508L84.75 1.83884ZM85.125 1.79533L85.2403 2.78866C85.4295 2.7667 85.618 2.76228 85.8064 2.77523L85.875 1.77758L85.9436 0.779931C85.632 0.758524 85.3205 0.765933 85.0097 0.801992L85.125 1.79533ZM85.875 1.77758L85.8064 2.77523L86.1814 2.80099L86.25 1.80335L86.3186 0.805698L85.9436 0.779931L85.875 1.77758ZM86.25 1.80335L86.1814 2.80099L86.5564 2.82676L86.625 1.82911L86.6936 0.831465L86.3186 0.805698L86.25 1.80335ZM86.625 1.82911L86.5564 2.82676C87.0143 2.85822 87.4479 2.7492 87.8406 2.5426L87.375 1.6576L86.9094 0.772596C86.8021 0.829039 86.7357 0.834364 86.6936 0.831465L86.625 1.82911ZM87.375 1.6576L87.8406 2.5426L88.2156 2.34531L87.75 1.46031L87.2844 0.575314L86.9094 0.772596L87.375 1.6576ZM87.75 1.46031L88.2156 2.34531L88.5906 2.14803L88.125 1.26303L87.6594 0.378031L87.2844 0.575314L87.75 1.46031ZM88.125 1.26303L88.5906 2.14803C88.5763 2.15553 88.5225 2.17765 88.4444 2.17329C88.369 2.16909 88.3304 2.14355 88.3374 2.14804L88.875 1.30483L89.4126 0.461625C88.8784 0.12105 88.246 0.0694363 87.6594 0.378031L88.125 1.26303ZM88.875 1.30483L88.3374 2.14804L88.7124 2.38712L89.25 1.54391L89.7876 0.700709L89.4126 0.461625L88.875 1.30483ZM89.25 1.54391L88.7124 2.38712L89.0874 2.6262L89.625 1.783L90.1626 0.939792L89.7876 0.700709L89.25 1.54391ZM89.625 1.783L89.0874 2.6262C89.3433 2.78934 89.653 2.90293 90.0024 2.90208C90.3517 2.90122 90.6607 2.78623 90.9155 2.62249L90.375 1.78116L89.8345 0.939828C89.8393 0.936707 89.8983 0.902326 89.9976 0.902083C90.097 0.90184 90.1567 0.936043 90.1626 0.939792L89.625 1.783ZM90.375 1.78116L90.9155 2.62249L91.2905 2.38157L90.75 1.54024L90.2095 0.698908L89.8345 0.939828L90.375 1.78116ZM90.75 1.54024L91.2905 2.38157L91.6655 2.14065L91.125 1.29932L90.5845 0.457987L90.2095 0.698908L90.75 1.54024ZM91.125 1.29932L91.6655 2.14065C91.6923 2.12342 91.6855 2.13406 91.6485 2.13962C91.6308 2.14228 91.6113 2.14291 91.592 2.14105C91.5728 2.13921 91.5588 2.13543 91.5513 2.13285L91.875 1.1867L92.1987 0.240536C91.6212 0.0429552 91.0551 0.155648 90.5845 0.457987L91.125 1.29932ZM91.875 1.1867L91.5513 2.13285L91.9263 2.26115L92.25 1.31499L92.5737 0.368831L92.1987 0.240536L91.875 1.1867ZM92.25 1.31499L91.9263 2.26115L92.3013 2.38945L92.625 1.44329L92.9487 0.497127L92.5737 0.368831L92.25 1.31499ZM92.625 1.44329L92.3013 2.38945C92.5584 2.4774 92.8155 2.56216 93.0728 2.64371L93.375 1.69047L93.6772 0.737235C93.4345 0.66027 93.1916 0.580235 92.9487 0.497127L92.625 1.44329ZM93.375 1.69047L93.0728 2.64371L93.4478 2.7626L93.75 1.80937L94.0522 0.856127L93.6772 0.737235L93.375 1.69047ZM93.75 1.80937L93.4478 2.7626L93.8228 2.8815L94.125 1.92826L94.4272 0.975019L94.0522 0.856127L93.75 1.80937ZM94.125 1.92826L93.8228 2.8815C94.1389 2.98171 94.4602 3.04759 94.7856 3.0768L94.875 2.0808L94.9644 1.0848C94.7898 1.06914 94.6111 1.03333 94.4272 0.975019L94.125 1.92826ZM94.875 2.0808L94.7856 3.0768L95.1606 3.11044L95.25 2.11444L95.3394 1.11844L94.9644 1.0848L94.875 2.0808ZM95.25 2.11444L95.1606 3.11044L95.5356 3.14409L95.625 2.14809L95.7144 1.15209L95.3394 1.11844L95.25 2.11444ZM95.625 2.14809L95.5356 3.14409C95.8927 3.17613 96.2483 3.15076 96.5985 3.07044L96.375 2.09574L96.1515 1.12104C96.0017 1.15538 95.8573 1.16492 95.7144 1.15209L95.625 2.14809ZM96.375 2.09574L96.5985 3.07044L96.9735 2.98444L96.75 2.00974L96.5265 1.03504L96.1515 1.12104L96.375 2.09574ZM96.75 2.00974L96.9735 2.98444L97.3485 2.89844L97.125 1.92375L96.9015 0.949047L96.5265 1.03504L96.75 2.00974ZM97.125 1.92375L97.3485 2.89844C97.5073 2.86204 97.6612 2.84965 97.8132 2.85907L97.875 1.86098L97.9368 0.862898C97.5888 0.841333 97.2427 0.870792 96.9015 0.949047L97.125 1.92375ZM97.875 1.86098L97.8132 2.85907L98.1882 2.88231L98.25 1.88422L98.3118 0.886133L97.9368 0.862898L97.875 1.86098ZM98.25 1.88422L98.1882 2.88231L98.5632 2.90554L98.625 1.90745L98.6868 0.909368L98.3118 0.886133L98.25 1.88422ZM98.625 1.90745L98.5632 2.90554C99.0202 2.93386 99.4524 2.8227 99.8436 2.61521L99.375 1.73179L98.9064 0.848362C98.7976 0.906074 98.7298 0.912031 98.6868 0.909368L98.625 1.90745ZM99.375 1.73179L99.8436 2.61521L100.219 2.41631L99.75 1.53288L99.2814 0.64946L98.9064 0.848362L99.375 1.73179ZM99.75 1.53288L100.219 2.41631L100.594 2.21741L100.125 1.33398L99.6564 0.450557L99.2814 0.64946L99.75 1.53288ZM100.125 1.33398L100.594 2.21741C100.581 2.22396 100.529 2.24595 100.453 2.24231C100.378 2.23877 100.339 2.21391 100.345 2.21745L100.875 1.36959L101.405 0.521737C100.868 0.185858 100.238 0.1422 99.6564 0.450557L100.125 1.33398ZM100.875 1.36959L100.345 2.21745L100.72 2.45196L101.25 1.60411L101.78 0.75625L101.405 0.521737L100.875 1.36959ZM101.25 1.60411L100.72 2.45196L101.095 2.68648L101.625 1.83862L102.155 0.990764L101.78 0.75625L101.25 1.60411ZM101.625 1.83862L101.095 2.68648C101.469 2.92069 101.892 3.07079 102.351 3.08197L102.375 2.08227L102.399 1.08256C102.358 1.08157 102.281 1.06924 102.155 0.990764L101.625 1.83862ZM102.375 2.08227L102.351 3.08197L102.726 3.0911L102.75 2.0914L102.774 1.0917L102.399 1.08256L102.375 2.08227ZM102.75 2.0914L102.726 3.0911L103.101 3.10024L103.125 2.10053L103.149 1.10083L102.774 1.0917L102.75 2.0914ZM103.125 2.10053L103.101 3.10024C103.486 3.10963 103.863 3.04172 104.224 2.90723L103.875 1.97007L103.526 1.0329C103.387 1.08455 103.264 1.10362 103.149 1.10083L103.125 2.10053ZM103.875 1.97007L104.224 2.90723L104.599 2.76763L104.25 1.83046L103.901 0.893297L103.526 1.0329L103.875 1.97007ZM104.25 1.83046L104.599 2.76763L104.974 2.62803L104.625 1.69086L104.276 0.753696L103.901 0.893297L104.25 1.83046ZM104.625 1.69086L104.974 2.62803C105.149 2.56282 105.316 2.52424 105.476 2.5079L105.375 1.51305L105.274 0.5182C104.934 0.552813 104.601 0.632775 104.276 0.753696L104.625 1.69086ZM105.375 1.51305L105.476 2.5079L105.851 2.46968L105.75 1.47483L105.649 0.479986L105.274 0.5182L105.375 1.51305ZM105.75 1.47483L105.851 2.46968L106.226 2.43147L106.125 1.43662L106.024 0.441772L105.649 0.479986L105.75 1.47483ZM106.125 1.43662L106.226 2.43147C106.29 2.42499 106.367 2.43217 106.473 2.47868L106.875 1.56303L107.277 0.647373C106.883 0.474385 106.46 0.397293 106.024 0.441772L106.125 1.43662ZM106.875 1.56303L106.473 2.47868L106.848 2.6433L107.25 1.72765L107.652 0.811996L107.277 0.647373L106.875 1.56303ZM107.25 1.72765L106.848 2.6433L107.223 2.80793L107.625 1.89227L108.027 0.976618L107.652 0.811996L107.25 1.72765ZM107.625 1.89227L107.223 2.80793C107.358 2.86723 107.564 2.95094 107.779 2.97849C107.869 2.98999 108.135 3.01816 108.419 2.87764C108.584 2.79633 108.747 2.66132 108.861 2.46384C108.971 2.27283 109 2.08333 109 1.94029H108H107C107 1.81668 107.025 1.64369 107.127 1.46626C107.233 1.28235 107.385 1.15798 107.534 1.0844C107.787 0.959307 108.006 0.991192 108.033 0.994687C108.123 1.00623 108.142 1.02706 108.027 0.976618L107.625 1.89227ZM108 1.94029H109V1.82368H108H107V1.94029H108ZM108 1.82368L108.919 1.42959L108.819 1.19638L107.9 1.59047L106.981 1.98456L107.081 2.21778L108 1.82368ZM107.9 1.59047V2.59047H108V1.59047V0.590472H107.9V1.59047Z" fill="var(--stroke-0, #C8C8C8)"/>
</svg>
