<svg preserveAspectRatio="none" width="100%" height="100%" overflow="visible" style="display: block;" viewBox="0 0 31.2138 14.7279" fill="none" xmlns="http://www.w3.org/2000/svg">
<path id="Arrow 3" d="M0.313786 7.36396L0.627571 6.41447L0.474743 6.36396H0.313786V7.36396ZM2.08879 7.62177L1.60937 6.74418L2.08879 7.62177ZM8.83879 7.70104L8.62608 6.72392L8.83879 7.70104ZM9.58879 7.4336L9.14482 6.53756L9.58879 7.4336ZM10.3388 7.062L10.7827 7.95805L10.3388 7.062ZM12.5888 7.10409L12.2543 8.04651L12.5888 7.10409ZM14.8388 7.80298L14.5814 8.76929L14.8388 7.80298ZM15.5888 7.74657L15.2041 6.82353L15.5888 7.74657ZM15.9638 7.59028L15.5791 6.66724L15.9638 7.59028ZM16.3388 7.43399L16.7235 8.35703L16.3388 7.43399ZM17.0888 7.22466L16.9487 6.23451L17.0888 7.22466ZM18.5888 6.99748L18.4102 6.01355L18.5888 6.99748ZM22.3388 6.93175L22.3152 5.93202L22.3388 6.93175ZM23.0888 7.09533L22.671 8.0039L23.0888 7.09533ZM23.8388 7.44016L24.2565 6.53159L23.8388 7.44016ZM24.5888 7.64058L24.5143 8.6378L24.5888 7.64058ZM26.8388 7.87101L26.9678 6.87938L26.8388 7.87101ZM27.5888 7.82332L27.3396 6.85487L27.5888 7.82332ZM28.3388 7.63033L28.588 8.59878L28.3388 7.63033ZM29.0888 7.40411L28.7619 6.45905L29.0888 7.40411ZM29.8388 7.14467L30.1657 8.08972L29.8388 7.14467ZM30.2138 7.1022L29.2138 7.1022L30.2138 7.1022ZM30.2138 7.18945L31.0814 7.68664L31.2138 7.45566L31.2138 7.18945L30.2138 7.18945ZM30.1138 7.36396L29.2461 6.86677L28.3882 8.36396H30.1138V7.36396ZM30.9209 8.07107C31.3114 7.68054 31.3114 7.04738 30.9209 6.65685L24.5569 0.292893C24.1664 -0.097631 23.5332 -0.097631 23.1427 0.292893C22.7522 0.683418 22.7522 1.31658 23.1427 1.70711L28.7996 7.36396L23.1427 13.0208C22.7522 13.4113 22.7522 14.0445 23.1427 14.435C23.5332 14.8256 24.1664 14.8256 24.5569 14.435L30.9209 8.07107ZM0.213786 7.36396V8.36396H0.313786V7.36396V6.36396H0.213786V7.36396ZM0.313786 7.36396L0 8.31346L0.7 8.54479L1.01379 7.59529L1.32757 6.6458L0.627571 6.41447L0.313786 7.36396ZM1.01379 7.59529L0.7 8.54479C1.2502 8.72662 1.94817 8.83807 2.5682 8.49936L2.08879 7.62177L1.60937 6.74418C1.67378 6.709 1.70528 6.71907 1.65716 6.71788C1.60516 6.7166 1.49955 6.70264 1.32757 6.6458L1.01379 7.59529ZM2.08879 7.62177L2.5682 8.49936L2.9432 8.29451L2.46379 7.41692L1.98437 6.53933L1.60937 6.74418L2.08879 7.62177ZM2.46379 7.41692L2.9432 8.29451L3.3182 8.08965L2.83879 7.21206L2.35937 6.33447L1.98437 6.53933L2.46379 7.41692ZM2.83879 7.21206L3.3182 8.08965C3.33463 8.08067 3.34513 8.07661 3.34982 8.07501C3.35433 8.07347 3.35419 8.07394 3.35007 8.07451C3.34584 8.07509 3.34035 8.07536 3.33465 8.07498C3.32903 8.0746 3.32622 8.0738 3.3271 8.07403L3.58879 7.10888L3.85047 6.14373C3.32552 6.0014 2.81118 6.08766 2.35937 6.33447L2.83879 7.21206ZM3.58879 7.10888L3.3271 8.07403L3.7021 8.17571L3.96379 7.21056L4.22547 6.24541L3.85047 6.14373L3.58879 7.10888ZM3.96379 7.21056L3.7021 8.17571L4.0771 8.27739L4.33879 7.31224L4.60047 6.34708L4.22547 6.24541L3.96379 7.21056ZM4.33879 7.31224L4.0771 8.27739C4.44235 8.37642 4.81618 8.40866 5.19251 8.36941L5.08879 7.3748L4.98506 6.3802C4.86139 6.3931 4.73522 6.38362 4.60047 6.34708L4.33879 7.31224ZM5.08879 7.3748L5.19251 8.36941L5.56751 8.3303L5.46379 7.3357L5.36006 6.34109L4.98506 6.3802L5.08879 7.3748ZM5.46379 7.3357L5.56751 8.3303L5.94251 8.2912L5.83879 7.29659L5.73506 6.30198L5.36006 6.34109L5.46379 7.3357ZM5.83879 7.29659L5.94251 8.2912C5.99778 8.28543 6.06862 8.29115 6.17165 8.33844L6.58879 7.4296L7.00592 6.52075C6.60895 6.33855 6.1798 6.2556 5.73506 6.30198L5.83879 7.29659ZM6.58879 7.4296L6.17165 8.33844L6.54665 8.51056L6.96379 7.60171L7.38092 6.69286L7.00592 6.52075L6.58879 7.4296ZM6.96379 7.60171L6.54665 8.51056L6.92165 8.68267L7.33879 7.77382L7.75592 6.86498L7.38092 6.69286L6.96379 7.60171ZM7.33879 7.77382L6.92165 8.68267C7.35293 8.88061 7.82339 8.9455 8.30149 8.84142L8.08879 7.8643L7.87608 6.88719C7.85418 6.89196 7.82464 6.89652 7.75592 6.86498L7.33879 7.77382ZM8.08879 7.8643L8.30149 8.84142L8.67649 8.75979L8.46379 7.78267L8.25108 6.80556L7.87608 6.88719L8.08879 7.8643ZM8.46379 7.78267L8.67649 8.75979L9.05149 8.67815L8.83879 7.70104L8.62608 6.72392L8.25108 6.80556L8.46379 7.78267ZM8.83879 7.70104L9.05149 8.67815C9.38847 8.6048 9.71585 8.48666 10.0327 8.32965L9.58879 7.4336L9.14482 6.53756C8.96172 6.62828 8.7891 6.68843 8.62608 6.72392L8.83879 7.70104ZM9.58879 7.4336L10.0327 8.32965L10.4077 8.14385L9.96379 7.2478L9.51982 6.35176L9.14482 6.53756L9.58879 7.4336ZM9.96379 7.2478L10.4077 8.14385L10.7827 7.95805L10.3388 7.062L9.89482 6.16596L9.51982 6.35176L9.96379 7.2478ZM10.3388 7.062L10.7827 7.95805C10.8939 7.90297 10.9701 7.89439 11.0257 7.89791L11.0888 6.8999L11.1519 5.9019C10.7075 5.87381 10.2837 5.97329 9.89482 6.16596L10.3388 7.062ZM11.0888 6.8999L11.0257 7.89791L11.4007 7.92161L11.4638 6.92361L11.5269 5.9256L11.1519 5.9019L11.0888 6.8999ZM11.4638 6.92361L11.4007 7.92161L11.7757 7.94532L11.8388 6.94731L11.9019 5.9493L11.5269 5.9256L11.4638 6.92361ZM11.8388 6.94731L11.7757 7.94532C11.9278 7.95493 12.0866 7.98699 12.2543 8.04651L12.5888 7.10409L12.9232 6.16167C12.5909 6.04376 12.2498 5.97129 11.9019 5.9493L11.8388 6.94731ZM12.5888 7.10409L12.2543 8.04651L12.6293 8.17959L12.9638 7.23717L13.2982 6.29475L12.9232 6.16167L12.5888 7.10409ZM12.9638 7.23717L12.6293 8.17959L13.0043 8.31267L13.3388 7.37025L13.6732 6.42783L13.2982 6.29475L12.9638 7.23717ZM13.3388 7.37025L13.0043 8.31267C13.2791 8.41016 13.5548 8.49583 13.8314 8.56952L14.0888 7.60321L14.3462 6.6369C14.1228 6.57741 13.8985 6.50778 13.6732 6.42783L13.3388 7.37025ZM14.0888 7.60321L13.8314 8.56952L14.2064 8.66941L14.4638 7.7031L14.7212 6.73679L14.3462 6.6369L14.0888 7.60321ZM14.4638 7.7031L14.2064 8.66941L14.5814 8.76929L14.8388 7.80298L15.0962 6.83667L14.7212 6.73679L14.4638 7.7031ZM14.8388 7.80298L14.5814 8.76929C15.0548 8.89539 15.5303 8.85432 15.9735 8.66961L15.5888 7.74657L15.2041 6.82353C15.1473 6.84721 15.1228 6.84375 15.0962 6.83667L14.8388 7.80298ZM15.5888 7.74657L15.9735 8.66961L16.3485 8.51332L15.9638 7.59028L15.5791 6.66724L15.2041 6.82353L15.5888 7.74657ZM15.9638 7.59028L16.3485 8.51332L16.7235 8.35703L16.3388 7.43399L15.9541 6.51095L15.5791 6.66724L15.9638 7.59028ZM16.3388 7.43399L16.7235 8.35703C16.9008 8.28314 17.0688 8.23744 17.2288 8.2148L17.0888 7.22466L16.9487 6.23451C16.6088 6.2826 16.2768 6.37645 15.9541 6.51095L16.3388 7.43399ZM17.0888 7.22466L17.2288 8.2148L17.6038 8.16176L17.4638 7.17162L17.3237 6.18147L16.9487 6.23451L17.0888 7.22466ZM17.4638 7.17162L17.6038 8.16176L17.9788 8.10872L17.8388 7.11857L17.6987 6.12843L17.3237 6.18147L17.4638 7.17162ZM17.8388 7.11857L17.9788 8.10872C18.2418 8.07152 18.5046 8.02908 18.7673 7.98141L18.5888 6.99748L18.4102 6.01355C18.1729 6.05661 17.9358 6.0949 17.6987 6.12843L17.8388 7.11857ZM18.5888 6.99748L18.7673 7.98141L19.1423 7.91336L18.9638 6.92943L18.7852 5.9455L18.4102 6.01355L18.5888 6.99748ZM18.9638 6.92943L19.1423 7.91336L19.5173 7.84531L19.3388 6.86138L19.1602 5.87745L18.7852 5.9455L18.9638 6.92943ZM19.3388 6.86138L19.5173 7.84531C19.6734 7.81699 19.8264 7.81173 19.9795 7.82856L20.0888 6.83455L20.1981 5.84054C19.8512 5.8024 19.5042 5.81503 19.1602 5.87745L19.3388 6.86138ZM20.0888 6.83455L19.9795 7.82856L20.3545 7.86979L20.4638 6.87578L20.5731 5.88177L20.1981 5.84054L20.0888 6.83455ZM20.4638 6.87578L20.3545 7.86979L20.7295 7.91102L20.8388 6.91701L20.9481 5.923L20.5731 5.88177L20.4638 6.87578ZM20.8388 6.91701L20.7295 7.91102C21.0233 7.94333 21.3177 7.95607 21.6123 7.94913L21.5888 6.94941L21.5652 5.94969C21.3598 5.95453 21.1542 5.94567 20.9481 5.923L20.8388 6.91701ZM21.5888 6.94941L21.6123 7.94913L21.9873 7.9403L21.9638 6.94058L21.9402 5.94086L21.5652 5.94969L21.5888 6.94941ZM21.9638 6.94058L21.9873 7.9403L22.3623 7.93147L22.3388 6.93175L22.3152 5.93202L21.9402 5.94086L21.9638 6.94058ZM22.3388 6.93175L22.3623 7.93147C22.4455 7.92951 22.5452 7.94605 22.671 8.0039L23.0888 7.09533L23.5065 6.18676C23.1323 6.01472 22.7321 5.9222 22.3152 5.93202L22.3388 6.93175ZM23.0888 7.09533L22.671 8.0039L23.046 8.17631L23.4638 7.26774L23.8815 6.35918L23.5065 6.18676L23.0888 7.09533ZM23.4638 7.26774L23.046 8.17631L23.421 8.34873L23.8388 7.44016L24.2565 6.53159L23.8815 6.35918L23.4638 7.26774ZM23.8388 7.44016L23.421 8.34873C23.7687 8.50858 24.1345 8.60944 24.5143 8.6378L24.5888 7.64058L24.6633 6.64336C24.5431 6.63438 24.4088 6.60163 24.2565 6.53159L23.8388 7.44016ZM24.5888 7.64058L24.5143 8.6378L24.8893 8.66581L24.9638 7.66859L25.0383 6.67136L24.6633 6.64336L24.5888 7.64058ZM24.9638 7.66859L24.8893 8.66581L25.2643 8.69382L25.3388 7.69659L25.4133 6.69937L25.0383 6.67136L24.9638 7.66859ZM25.3388 7.69659L25.2643 8.69382C25.496 8.71112 25.7278 8.73485 25.9597 8.76504L26.0888 7.7734L26.2178 6.78177C25.9498 6.74688 25.6816 6.71941 25.4133 6.69937L25.3388 7.69659ZM26.0888 7.7734L25.9597 8.76504L26.3347 8.81385L26.4638 7.82221L26.5928 6.83057L26.2178 6.78177L26.0888 7.7734ZM26.4638 7.82221L26.3347 8.81385L26.7097 8.86265L26.8388 7.87101L26.9678 6.87938L26.5928 6.83057L26.4638 7.82221ZM26.8388 7.87101L26.7097 8.86265C27.0892 8.91204 27.4676 8.8871 27.838 8.79177L27.5888 7.82332L27.3396 6.85487C27.21 6.88821 27.0884 6.89506 26.9678 6.87938L26.8388 7.87101ZM27.5888 7.82332L27.838 8.79177L28.213 8.69527L27.9638 7.72682L27.7146 6.75837L27.3396 6.85487L27.5888 7.82332ZM27.9638 7.72682L28.213 8.69527L28.588 8.59878L28.3388 7.63033L28.0896 6.66188L27.7146 6.75837L27.9638 7.72682ZM28.3388 7.63033L28.588 8.59878C28.8648 8.52754 29.1408 8.44427 29.4157 8.34916L29.0888 7.40411L28.7619 6.45905C28.5368 6.5369 28.3127 6.60445 28.0896 6.66188L28.3388 7.63033ZM29.0888 7.40411L29.4157 8.34916L29.7907 8.21944L29.4638 7.27439L29.1369 6.32933L28.7619 6.45905L29.0888 7.40411ZM29.4638 7.27439L29.7907 8.21944L30.1657 8.08972L29.8388 7.14467L29.5119 6.19961L29.1369 6.32933L29.4638 7.27439ZM29.8388 7.14467L30.1657 8.08972C30.2799 8.05022 30.2861 8.05677 30.2326 8.06284C30.2251 8.06368 30.0625 8.0873 29.8582 8.01537C29.7395 7.97356 29.5638 7.88397 29.4192 7.69858C29.2668 7.50305 29.2138 7.28396 29.2138 7.1022L30.2138 7.1022L31.2138 7.10219C31.2138 6.9059 31.1568 6.67452 30.9966 6.46897C30.8443 6.27356 30.6568 6.17621 30.5225 6.1289C30.2869 6.04596 30.0775 6.06762 30.0075 6.07554C29.8289 6.09576 29.6477 6.15263 29.5119 6.19961L29.8388 7.14467ZM30.2138 7.1022L29.2138 7.1022V7.18946L30.2138 7.18945L31.2138 7.18945V7.10219L30.2138 7.1022ZM30.2138 7.18945L29.3461 6.69226L29.2461 6.86677L30.1138 7.36396L30.9814 7.86115L31.0814 7.68664L30.2138 7.18945ZM30.1138 7.36396V8.36396H30.2138V7.36396V6.36396H30.1138V7.36396Z" fill="var(--stroke-0, #6B6B6B)"/>
</svg>
